<?xml version="1.0" encoding="utf-8"?>
<!-- Generator: Adobe Illustrator 18.1.1, SVG Export Plug-In . SVG Version: 6.00 Build 0)  -->
<!DOCTYPE svg PUBLIC "-//W3C//DTD SVG 1.1//EN" "http://www.w3.org/Graphics/SVG/1.1/DTD/svg11.dtd">
<svg version="1.1" id="Layer_1" xmlns="http://www.w3.org/2000/svg" xmlns:xlink="http://www.w3.org/1999/xlink" x="0px" y="0px"
	 width="200px" height="200px" viewBox="0 0 200 200" enable-background="new 0 0 200 200" xml:space="preserve">
<linearGradient id="SVGID_1_" gradientUnits="userSpaceOnUse" x1="137.65" y1="55.6" x2="137.65" y2="84.3" gradientTransform="matrix(1 0 0 -1 0 200)">
	<stop  offset="0" style="stop-color:#49CFEF"/>
	<stop  offset="1" style="stop-color:#79F3F2"/>
</linearGradient>
<path fill="url(#SVGID_1_)" d="M150,144.4h-24.7c-1.1,0-2-0.9-2-2v-24.7c0-1.1,0.9-2,2-2H150c1.1,0,2,0.9,2,2v24.7
	C152,143.5,151.1,144.4,150,144.4z"/>
<linearGradient id="SVGID_2_" gradientUnits="userSpaceOnUse" x1="168.75" y1="151.7" x2="168.75" y2="170.5" gradientTransform="matrix(1 0 0 -1 0 200)">
	<stop  offset="0" style="stop-color:#25E582"/>
	<stop  offset="1" style="stop-color:#61E8B0"/>
</linearGradient>
<path fill="url(#SVGID_2_)" d="M186.9,48.3h-36.3c-1.1,0-2-0.9-2-2V31.5c0-1.1,0.9-2,2-2h36.3c1.1,0,2,0.9,2,2v14.8
	C188.9,47.4,188,48.3,186.9,48.3z"/>
<linearGradient id="SVGID_3_" gradientUnits="userSpaceOnUse" x1="76.15" y1="151.7" x2="76.15" y2="170.5" gradientTransform="matrix(1 0 0 -1 0 200)">
	<stop  offset="0" style="stop-color:#49CFEF"/>
	<stop  offset="1" style="stop-color:#79F3F2"/>
</linearGradient>
<path fill="url(#SVGID_3_)" d="M139.2,48.3H13.1c-1.1,0-2-0.9-2-2V31.5c0-1.1,0.9-2,2-2h126.1c1.1,0,2,0.9,2,2v14.8
	C141.2,47.4,140.3,48.3,139.2,48.3z"/>
<linearGradient id="SVGID_4_" gradientUnits="userSpaceOnUse" x1="83.8538" y1="28.4992" x2="83.8538" y2="144.7" gradientTransform="matrix(1 0 0 -1 0 200)">
	<stop  offset="0" style="stop-color:#FFD70F"/>
	<stop  offset="1" style="stop-color:#FFE915"/>
</linearGradient>
<path fill="url(#SVGID_4_)" d="M112.7,171.5H55.1c-1.1,0-2-0.9-2-2V57.3c0-1.1,0.9-2,2-2h57.5c1.1,0,2,0.9,2,2v112.2
	C114.7,170.6,113.8,171.5,112.7,171.5z"/>
<linearGradient id="SVGID_5_" gradientUnits="userSpaceOnUse" x1="28.35" y1="29.5" x2="28.35" y2="144.7" gradientTransform="matrix(1 0 0 -1 0 200)">
	<stop  offset="0" style="stop-color:#E673DE"/>
	<stop  offset="0.9553" style="stop-color:#F0A7DC"/>
	<stop  offset="1" style="stop-color:#F0AADC"/>
</linearGradient>
<path fill="url(#SVGID_5_)" d="M43.6,170.5H13.1c-1.1,0-2-0.9-2-2V57.3c0-1.1,0.9-2,2-2h30.5c1.1,0,2,0.9,2,2v111.2
	C45.6,169.6,44.7,170.5,43.6,170.5z"/>
<linearGradient id="SVGID_6_" gradientUnits="userSpaceOnUse" x1="155.75" y1="91.6" x2="155.75" y2="144.6" gradientTransform="matrix(1 0 0 -1 0 200)">
	<stop  offset="0" style="stop-color:#FF616A"/>
	<stop  offset="1" style="stop-color:#FF7D95"/>
</linearGradient>
<path fill="url(#SVGID_6_)" d="M186.9,108.4h-62.3c-1.1,0-2-0.9-2-2v-49c0-1.1,0.9-2,2-2h62.3c1.1,0,2,0.9,2,2v49
	C188.9,107.5,188,108.4,186.9,108.4z"/>
<linearGradient id="SVGID_7_" gradientUnits="userSpaceOnUse" x1="173.75" y1="55.6" x2="173.75" y2="84.3" gradientTransform="matrix(1 0 0 -1 0 200)">
	<stop  offset="0" style="stop-color:#E673DE"/>
	<stop  offset="0.9553" style="stop-color:#F0A7DC"/>
	<stop  offset="1" style="stop-color:#F0AADC"/>
</linearGradient>
<path fill="url(#SVGID_7_)" d="M186.9,144.4h-26.3c-1.1,0-2-0.9-2-2v-24.7c0-1.1,0.9-2,2-2h26.3c1.1,0,2,0.9,2,2v24.7
	C188.9,143.5,188,144.4,186.9,144.4z"/>
<linearGradient id="SVGID_8_" gradientUnits="userSpaceOnUse" x1="122.5174" y1="38.9" x2="188.8174" y2="38.9" gradientTransform="matrix(1 0 0 -1 0 200)">
	<stop  offset="0" style="stop-color:#25E582"/>
	<stop  offset="1" style="stop-color:#61E8B0"/>
</linearGradient>
<path fill="url(#SVGID_8_)" d="M186.9,170.5h-62.3c-1.1,0-2-0.9-2-2v-14.8c0-1.1,0.9-2,2-2h62.3c1.1,0,2,0.9,2,2v14.8
	C188.9,169.6,188,170.5,186.9,170.5z"/>
</svg>
