<svg xmlns="http://www.w3.org/2000/svg" viewBox="0 0 200 200" enable-background="new 0 0 200 200"><g><path d="M31.633 159.683h15.719c.116 0 .211.094.211.211v4.251c0 .116-.094.211-.211.211h-10.375c-.116 0-.211.094-.211.211v4.18c0 .116.094.211.211.211h7.967c.116 0 .211.094.211.211v4.109c0 .116-.094.211-.211.211h-7.967c-.116 0-.211.094-.211.211v4.675c0 .116.094.211.211.211h11.153c.116 0 .211.094.211.211v4.286c0 .116-.094.211-.211.211h-16.497c-.116 0-.211-.094-.211-.211v-23.187c0-.119.095-.213.211-.213zm27.225 0h5.618c.088 0 .167.055.198.138l8.482 23.187c.05.137-.051.283-.198.283h-5.387c-.091 0-.171-.058-.2-.144l-1.709-5.127c-.029-.086-.109-.144-.2-.144h-8.014c-.091 0-.171.058-.2.144l-1.709 5.127c-.029.086-.109.144-.2.144h-5.137c-.147 0-.249-.147-.197-.284l8.656-23.187c.03-.082.109-.137.197-.137zm5.394 13.777l-2.581-8.028c-.062-.194-.337-.195-.401-.001l-2.644 8.028c-.045.136.057.277.2.277h5.225c.143-.001.244-.14.201-.276zm13.032 2.952c.082-.089.22-.09.304-.003.271.279.58.561.927.848.413.342.873.655 1.381.938.507.283 1.062.513 1.664.69.602.177 1.244.265 1.929.265.401 0 .802-.058 1.203-.177.401-.118.767-.288 1.097-.513.33-.224.595-.495.796-.814.2-.318.301-.678.301-1.08 0-.873-.425-1.551-1.274-2.035-.85-.483-2.195-.961-4.035-1.433-.897-.212-1.729-.519-2.495-.921-.767-.401-1.428-.885-1.982-1.451-.555-.566-.986-1.215-1.292-1.947-.307-.731-.46-1.545-.46-2.442 0-.991.177-1.923.531-2.796.354-.873.89-1.646 1.611-2.318.719-.673 1.616-1.203 2.69-1.593 1.074-.389 2.342-.584 3.805-.584 1.203 0 2.265.124 3.185.372.921.248 1.704.543 2.354.885.649.342 1.18.696 1.593 1.062.326.289.59.53.791.724.083.079.088.209.011.294l-2.81 3.101c-.075.082-.197.094-.284.025-.224-.178-.474-.367-.751-.568-.342-.248-.726-.478-1.151-.69-.425-.212-.891-.389-1.398-.531s-1.044-.212-1.61-.212c-.378 0-.749.059-1.115.177-.366.119-.696.278-.991.478-.295.201-.531.437-.708.708-.177.272-.265.561-.265.867 0 .802.425 1.451 1.274 1.947.849.495 2.018.909 3.504 1.239.872.212 1.728.502 2.566.867.837.366 1.587.844 2.248 1.433.66.59 1.191 1.316 1.593 2.177.401.862.602 1.906.602 3.132 0 1.062-.236 2.041-.708 2.938-.472.897-1.115 1.676-1.929 2.336-.814.661-1.77 1.174-2.867 1.539-1.097.366-2.283.549-3.557.549-1.18 0-2.254-.112-3.221-.337-.968-.224-1.841-.518-2.619-.885-.779-.365-1.481-.784-2.106-1.257-.565-.426-1.058-.862-1.478-1.307-.076-.081-.074-.207.002-.289l3.144-3.408zm18.626-16.729h15.719c.116 0 .211.094.211.211v4.251c0 .116-.094.211-.211.211h-10.374c-.116 0-.211.094-.211.211v4.18c0 .116.094.211.211.211h7.967c.116 0 .211.094.211.211v4.109c0 .116-.094.211-.211.211h-7.967c-.116 0-.211.094-.211.211v4.675c0 .116.094.211.211.211h11.153c.116 0 .211.094.211.211v4.286c0 .116-.094.211-.211.211h-16.498c-.116 0-.211-.094-.211-.211v-23.187c0-.119.095-.213.211-.213zm20.352 0h4.923c.116 0 .211.094.211.211v18.444c0 .116.094.211.211.211h10.87c.116 0 .211.094.211.211v4.322c0 .116-.094.211-.211.211h-16.215c-.116 0-.211-.094-.211-.211v-23.187c0-.118.095-.212.211-.212zm20.199 18.967c.086-.076.217-.066.295.019.639.699 1.282 1.213 1.931 1.543.696.354 1.527.531 2.495.531.567 0 1.091-.088 1.575-.265.484-.177.914-.454 1.292-.832.377-.377.672-.861.885-1.451.212-.59.318-1.297.318-2.124v-16.177c0-.116.094-.211.211-.211h2.977c.116 0 .211.094.211.211v16.46c0 1.369-.201 2.531-.602 3.487-.401.956-.938 1.734-1.61 2.336-.673.602-1.458 1.039-2.354 1.309-.897.271-1.841.407-2.832.407-1.746 0-3.174-.307-4.283-.921-1.046-.578-1.924-1.304-2.634-2.176-.072-.088-.059-.219.026-.294l2.099-1.852zm17.236-.95c.086-.079.217-.073.295.014.294.327.62.658.976.994.413.389.879.738 1.398 1.044.518.307 1.097.555 1.734.743.637.189 1.333.283 2.088.283 1.557 0 2.772-.354 3.645-1.062.873-.708 1.31-1.664 1.31-2.867 0-1.297-.495-2.271-1.487-2.92-.991-.649-2.419-1.174-4.283-1.575-1.015-.212-1.935-.507-2.761-.885-.826-.377-1.54-.849-2.141-1.416-.602-.566-1.068-1.221-1.398-1.965-.33-.743-.495-1.587-.495-2.531 0-.873.165-1.699.495-2.478.33-.779.826-1.463 1.487-2.053.66-.59 1.487-1.062 2.478-1.416.991-.354 2.135-.531 3.434-.531 1.156 0 2.153.124 2.991.372.837.248 1.551.549 2.141.903.59.354 1.062.72 1.416 1.097.28.299.508.554.685.764.073.087.066.215-.018.292l-1.962 1.809c-.085.078-.216.076-.294-.009-.13-.14-.297-.307-.5-.502-.283-.271-.643-.536-1.08-.796-.437-.259-.944-.478-1.522-.655-.579-.177-1.245-.265-2-.265-.756 0-1.404.101-1.947.301-.543.201-.991.46-1.345.779-.354.318-.614.679-.779 1.08-.165.401-.248.802-.248 1.203 0 .59.124 1.092.372 1.504.248.413.607.779 1.079 1.097.472.319 1.056.59 1.752.814.696.224 1.492.442 2.389.655.873.212 1.728.49 2.566.832.837.342 1.587.803 2.248 1.381.66.578 1.186 1.286 1.575 2.124.389.838.584 1.858.584 3.062 0 1.015-.212 1.947-.637 2.797-.425.849-1.009 1.587-1.752 2.212-.743.625-1.623 1.109-2.637 1.451-1.015.342-2.112.514-3.292.514-1.109 0-2.118-.13-3.027-.39-.909-.259-1.734-.589-2.478-.991-.743-.401-1.393-.844-1.947-1.327-.495-.431-.909-.857-1.244-1.279-.069-.087-.055-.212.026-.286l2.11-1.922z" fill="#405261"/><linearGradient id="a" gradientUnits="userSpaceOnUse" x1="100" y1="134.333" x2="100" y2="14.333"><stop offset="0" stop-color="#49CFEF"/><stop offset=".181" stop-color="#4FD0EF"/><stop offset=".419" stop-color="#5FD4F0"/><stop offset=".687" stop-color="#7ADAF1"/><stop offset=".977" stop-color="#A0E2F2"/><stop offset="1" stop-color="#A3E3F2"/></linearGradient><path d="M120.188 29.427h-40.469l2.522-13.462c.177-.946 1.002-1.631 1.964-1.631h31.482c.96 0 1.785.684 1.963 1.629l2.538 13.464zm15.854 83.865h-20.25l3.893 19.434c.187.935 1.007 1.608 1.959 1.608h15.93c1.252 0 2.195-1.14 1.963-2.371l-3.495-18.671zm-75.527 18.673c-.231 1.231.713 2.369 1.964 2.369h15.933c.952 0 1.772-.673 1.959-1.608l3.88-19.434h-20.251l-3.485 18.673zm99.485-91.573v61.875c0 3.314-2.683 6-5.993 6h-108.013c-3.31 0-5.994-2.686-5.994-6v-61.875c0-3.314 2.683-6 5.994-6h108.013c3.31 0 5.993 2.687 5.993 6zm-59.11 34.363c0-9.228-7.48-16.708-16.708-16.708-9.228 0-16.708 7.48-16.708 16.708 0 9.228 7.48 16.708 16.708 16.708 9.227 0 16.708-7.48 16.708-16.708zm33.636 16.617l-25.057-43.4-7.939 13.751c2.735 3.632 4.359 8.146 4.359 13.032 0 6.663-3.02 12.632-7.761 16.617h36.398z" fill="url(#a)"/></g></svg>