<svg xmlns="http://www.w3.org/2000/svg" viewBox="0 0 200 200" enable-background="new 0 0 200 200"><path d="M25.558 176.421c.082-.089.22-.09.304-.003.271.279.58.561.926.848.412.342.872.654 1.379.937.507.283 1.061.513 1.662.69.601.177 1.243.265 1.928.265.4 0 .801-.058 1.202-.177.401-.118.766-.288 1.097-.513.33-.224.595-.495.795-.813.201-.318.301-.678.301-1.079 0-.872-.424-1.55-1.273-2.034-.849-.483-2.193-.96-4.032-1.432-.896-.212-1.728-.518-2.494-.92-.766-.4-1.427-.884-1.981-1.45s-.985-1.214-1.291-1.945c-.307-.731-.46-1.544-.46-2.44 0-.99.177-1.922.53-2.794.354-.872.89-1.644 1.609-2.317.719-.672 1.615-1.202 2.688-1.591 1.072-.389 2.34-.584 3.802-.584 1.202 0 2.264.124 3.183.371.919.248 1.703.543 2.352.884.648.342 1.178.696 1.591 1.061.326.289.59.53.791.723.083.079.088.209.011.294l-2.808 3.099c-.075.082-.197.094-.284.025-.223-.178-.473-.367-.75-.568-.342-.248-.725-.477-1.15-.69-.424-.212-.891-.389-1.397-.531-.507-.141-1.044-.212-1.609-.212-.377 0-.748.059-1.114.177-.365.118-.696.278-.99.478-.295.2-.53.436-.707.707-.177.271-.266.56-.266.867 0 .802.425 1.45 1.274 1.945.849.495 2.016.908 3.502 1.238.872.212 1.727.501 2.564.867.836.366 1.585.843 2.246 1.432.66.59 1.19 1.315 1.591 2.175.4.861.601 1.904.601 3.13 0 1.061-.236 2.04-.707 2.936-.472.896-1.114 1.674-1.928 2.334-.813.66-1.768 1.173-2.865 1.538-1.096.366-2.281.549-3.554.549-1.179 0-2.252-.112-3.219-.336-.967-.224-1.839-.518-2.617-.884-.778-.365-1.48-.784-2.104-1.256-.564-.426-1.057-.861-1.477-1.306-.076-.081-.074-.207.002-.289l3.146-3.406zm30.001 7.476c-1.745 0-3.366-.319-4.863-.955-1.497-.637-2.794-1.509-3.891-2.617-1.096-1.108-1.957-2.423-2.582-3.944-.625-1.521-.937-3.153-.937-4.898 0-1.768.312-3.407.937-4.916.625-1.509 1.486-2.817 2.582-3.926 1.097-1.108 2.393-1.98 3.891-2.617 1.497-.637 3.118-.955 4.863-.955 1.745 0 3.365.318 4.863.955 1.497.637 2.794 1.509 3.891 2.617 1.097 1.109 1.957 2.417 2.582 3.926.625 1.509.937 3.148.937 4.916 0 1.745-.313 3.377-.937 4.898-.625 1.521-1.485 2.835-2.582 3.944-1.096 1.109-2.393 1.981-3.891 2.617-1.498.636-3.119.955-4.863.955zm0-5.023c1.037 0 1.969-.2 2.794-.601.825-.4 1.527-.943 2.104-1.627.578-.683 1.02-1.473 1.326-2.37.306-.896.46-1.851.46-2.865 0-1.014-.153-1.968-.46-2.865-.307-.896-.749-1.68-1.326-2.352-.578-.672-1.279-1.203-2.104-1.592-.825-.389-1.757-.583-2.794-.583-1.038 0-1.975.194-2.812.583-.837.389-1.545.92-2.122 1.592-.578.672-1.02 1.456-1.326 2.352-.307.896-.46 1.851-.46 2.865 0 1.014.153 1.969.46 2.865.306.896.748 1.686 1.326 2.37.577.684 1.285 1.227 2.122 1.627.837.401 1.774.601 2.812.601zm15.701-19.169h4.955c.116 0 .211.094.211.211v13.759c0 .778.076 1.48.23 2.104.153.625.407 1.162.761 1.609.354.448.819.796 1.397 1.043.578.248 1.291.371 2.14.371.825 0 1.527-.124 2.104-.371.578-.248 1.044-.595 1.397-1.043.354-.448.607-.984.76-1.609.153-.625.23-1.326.23-2.104v-13.759c0-.116.094-.211.211-.211h4.99c.116 0 .211.094.211.211v14.431c0 1.415-.23 2.712-.69 3.891-.46 1.179-1.12 2.187-1.981 3.024-.861.837-1.905 1.492-3.13 1.963-1.226.472-2.594.708-4.103.708s-2.877-.23-4.102-.69c-1.227-.46-2.27-1.114-3.13-1.963-.861-.849-1.521-1.862-1.981-3.041-.46-1.179-.69-2.476-.69-3.891v-14.431c-.001-.117.093-.212.21-.212zm23.872 0h4.77c.07 0 .136.035.175.094l9.773 14.643c.116.173.386.091.386-.117v-14.409c0-.116.094-.211.211-.211h4.849c.116 0 .211.094.211.211v23.169c0 .116-.094.211-.211.211h-4.522c-.07 0-.136-.035-.175-.093l-10.021-14.93c-.116-.173-.385-.091-.385.117v14.695c0 .116-.094.211-.211.211h-4.849c-.116 0-.211-.094-.211-.211v-23.169c0-.116.094-.211.21-.211zm24.794.211c0-.116.094-.211.211-.211h8.702c1.815 0 3.495.236 5.04.707 1.544.472 2.877 1.191 3.997 2.157 1.12.967 1.992 2.205 2.617 3.714s.937 3.289.937 5.34c0 1.957-.318 3.661-.955 5.11-.637 1.45-1.515 2.665-2.635 3.643-1.12.979-2.453 1.71-3.997 2.193-1.544.484-3.224.725-5.04.725h-8.667c-.116 0-.211-.094-.211-.211v-23.167zm8.594 18.64c2.357 0 4.173-.619 5.446-1.857 1.273-1.238 1.91-2.941 1.91-5.11 0-1.084-.148-2.069-.442-2.953-.295-.884-.743-1.639-1.344-2.264-.601-.625-1.361-1.108-2.281-1.45-.919-.341-2.016-.513-3.289-.513h-3.043c-.116 0-.211.094-.211.211v13.726c0 .116.094.211.211.211h3.043zm16.699.101c.086-.076.217-.066.294.019.638.698 1.281 1.212 1.93 1.542.695.354 1.526.53 2.493.53.566 0 1.09-.088 1.574-.265.483-.177.914-.454 1.291-.831.377-.377.672-.861.884-1.45.212-.589.318-1.296.318-2.122v-16.164c0-.116.094-.211.211-.211h2.974c.116 0 .211.094.211.211v16.447c0 1.368-.201 2.529-.602 3.484-.401.955-.937 1.733-1.609 2.334-.672.601-1.456 1.038-2.352 1.308-.896.271-1.839.407-2.83.407-1.745 0-3.171-.307-4.279-.92-1.045-.578-1.923-1.303-2.632-2.175-.072-.088-.059-.219.026-.294l2.098-1.85zm17.223-.949c.086-.079.217-.073.295.014.294.327.619.658.975.993.412.389.878.737 1.397 1.044.518.307 1.096.554 1.733.743.636.189 1.332.283 2.087.283 1.556 0 2.77-.354 3.643-1.061.872-.708 1.309-1.662 1.309-2.865 0-1.296-.495-2.269-1.486-2.918-.99-.648-2.417-1.173-4.279-1.574-1.014-.212-1.933-.507-2.759-.884-.826-.377-1.539-.849-2.14-1.415-.601-.566-1.067-1.22-1.397-1.963-.33-.743-.495-1.585-.495-2.529 0-.872.165-1.698.495-2.476.33-.778.825-1.462 1.486-2.051.66-.589 1.486-1.061 2.476-1.415.991-.354 2.134-.531 3.431-.531 1.155 0 2.151.124 2.988.371.837.248 1.55.548 2.14.902.589.354 1.061.72 1.415 1.096.28.299.508.553.684.763.073.087.066.215-.018.291l-1.961 1.807c-.085.078-.215.076-.294-.009-.13-.14-.296-.307-.499-.501-.283-.271-.643-.536-1.079-.796-.437-.259-.943-.478-1.521-.654-.578-.177-1.244-.265-1.998-.265-.755 0-1.403.101-1.945.301-.543.201-.991.46-1.344.778-.354.318-.613.678-.778 1.079-.165.401-.248.802-.248 1.202 0 .59.124 1.091.371 1.503.248.413.607.778 1.078 1.096.472.318 1.055.59 1.751.814.695.224 1.491.442 2.387.654.872.212 1.727.49 2.564.831.837.342 1.585.802 2.246 1.379.66.578 1.185 1.285 1.574 2.122s.583 1.857.583 3.059c0 1.014-.212 1.945-.636 2.794-.424.849-1.008 1.586-1.751 2.21-.743.625-1.621 1.109-2.635 1.45-1.014.342-2.111.513-3.289.513-1.109 0-2.117-.13-3.024-.389-.908-.259-1.733-.589-2.476-.99-.743-.401-1.391-.843-1.945-1.326-.494-.43-.908-.857-1.243-1.278-.069-.087-.055-.211.026-.286l2.106-1.916z" fill="#405261"/><g><linearGradient id="a" gradientUnits="userSpaceOnUse" x1="99.833" y1="130.719" x2="99.833" y2="17.947"><stop offset="0" stop-color="#25E582"/><stop offset="1" stop-color="#61E8B0"/></linearGradient><path d="M61.351 71.943c-5.637 4.394-11.001 8.564-18.519 9.458v-33.818c0-1.657 1.343-3 3-3h18c1.657 0 3 1.343 3 3v20.255c-1.886 1.309-3.693 2.712-5.481 4.105zm92.482-22.36h-18c-1.657 0-3 1.343-3 3v26.376c6.305 1.452 14.05 2.433 24 2.597v-28.973c0-1.657-1.344-3-3-3zm-27 27.733v-44.379c0-1.657-1.343-3-3-3h-18c-1.657 0-3 1.343-3 3v32.721c2.433 1.155 4.734 2.46 7.075 3.792 4.762 2.71 9.832 5.591 16.925 7.866zm-30-14.01v-42.359c0-1.657-1.343-3-3-3h-18c-1.657 0-3 1.343-3 3v43.361c3.492-1.646 7.38-2.725 11.965-2.725 4.682 0 8.571.664 12.035 1.723zm-30 13.51l-1.213-.593c-6.101 4.751-12.907 10.251-22.787 11.202v14.158c0 1.657 1.343 3 3 3h18c1.657 0 3-1.343 3-3v-24.767zm60 6.754c-8.71-2.548-14.638-5.916-19.892-8.905-1.414-.805-2.767-1.572-4.108-2.289v43.353c0 1.657 1.343 3 3 3h18c1.657 0 3-1.343 3-3v-32.159zm30 3.988c-9.733-.159-17.542-1.092-24-2.475v11c0 1.657 1.343 3 3 3h18c1.657 0 3-1.343 3-3v-8.525zm-60-17.941c-3.437-1.261-7.216-2.034-12.035-2.034-4.605 0-8.423 1.432-11.965 3.526v56.61c0 1.657 1.343 3 3 3h18c1.657 0 3-1.343 3-3v-58.102z" fill="url(#a)"/></g></svg>