<?xml version="1.0" encoding="utf-8"?>
<!-- Generator: Adobe Illustrator 18.1.1, SVG Export Plug-In . SVG Version: 6.00 Build 0)  -->
<!DOCTYPE svg PUBLIC "-//W3C//DTD SVG 1.1//EN" "http://www.w3.org/Graphics/SVG/1.1/DTD/svg11.dtd">
<svg version="1.1" id="Layer_1" xmlns="http://www.w3.org/2000/svg" xmlns:xlink="http://www.w3.org/1999/xlink" x="0px" y="0px"
	 width="200px" height="200px" viewBox="0 0 200 200" enable-background="new 0 0 200 200" xml:space="preserve">
<path fill="#3277BC" d="M182.3,94.1C182.3,38.5,140.8,5,97,5C45.9,5,12,43.2,7,90.5c16.2-27.3,50.4-49.1,84-49.1
	c28.4,0,38.8,16.3,38.8,40.2H62.6c0,0,0-15.6,13.3-30.1c-27.2,10.7-46.8,36.5-46.8,69c0,41.3,32.7,74.5,79.1,74.5
	c35.7,0,58.1-13.6,58.1-13.6v-40.3c0,0-19.8,14.4-51.8,14.4c-26.3,0-51.4-11.4-51.4-40.2h119.4V94.1L182.3,94.1z"/>
</svg>
