<svg xmlns="http://www.w3.org/2000/svg" viewBox="0 0 200 200" enable-background="new 0 0 200 200"><g><path d="M30.181 164.369h-7.232c-.116 0-.211-.094-.211-.211v-4.291c0-.116.094-.211.211-.211h20.236c.116 0 .211.094.211.211v4.291c0 .116-.094.211-.211.211h-7.197c-.116 0-.211.094-.211.211v18.5c0 .116-.094.211-.211.211h-4.964c-.116 0-.211-.094-.211-.211v-18.5c.001-.116-.094-.211-.21-.211zm14.938-4.712h5.298c.1 0 .187.071.207.169l3.253 16.035c.045.22.356.227.411.01l3.879-15.416c.024-.094.108-.159.205-.159h4.526c.097 0 .181.066.204.159l3.912 15.417c.055.218.367.21.411-.01l3.22-16.034c.02-.099.106-.169.207-.169h5.083c.138 0 .238.13.204.263l-5.916 23.212c-.024.093-.108.159-.204.159h-5.307c-.096 0-.18-.065-.204-.158l-3.796-14.518c-.055-.21-.352-.21-.408-.001l-3.863 14.519c-.025.092-.108.157-.204.157h-5.307c-.097 0-.181-.066-.205-.16l-5.812-23.212c-.032-.134.068-.263.206-.263zm33.602 0h15.736c.116 0 .211.094.211.211v4.255c0 .116-.094.211-.211.211h-10.385c-.116 0-.211.094-.211.211v4.185c0 .116.094.211.211.211h7.976c.116 0 .211.094.211.211v4.114c0 .116-.094.211-.211.211h-7.976c-.116 0-.211.094-.211.211v4.68c0 .116.094.211.211.211h11.165c.116 0 .211.094.211.211v4.291c0 .116-.094.211-.211.211h-16.516c-.116 0-.211-.094-.211-.211v-23.212c0-.118.095-.212.211-.212zm20.374 0h15.736c.116 0 .211.094.211.211v4.255c0 .116-.094.211-.211.211h-10.385c-.116 0-.211.094-.211.211v4.185c0 .116.094.211.211.211h7.976c.116 0 .211.094.211.211v4.114c0 .116-.094.211-.211.211h-7.976c-.116 0-.211.094-.211.211v4.68c0 .116.094.211.211.211h11.165c.116 0 .211.094.211.211v4.291c0 .116-.094.211-.211.211h-16.516c-.116 0-.211-.094-.211-.211v-23.212c0-.118.095-.212.211-.212zm20.374 0h4.779c.07 0 .136.035.175.094l9.792 14.67c.116.174.386.092.386-.117v-14.436c0-.116.094-.211.211-.211h4.858c.116 0 .211.094.211.211v23.212c0 .116-.094.211-.211.211h-4.531c-.07 0-.136-.035-.175-.093l-10.04-14.958c-.116-.173-.386-.091-.386.118v14.722c0 .116-.094.211-.211.211h-4.858c-.116 0-.211-.094-.211-.211v-23.212c0-.117.095-.211.211-.211zm25.642 18.987c.086-.076.217-.066.295.019.639.7 1.284 1.215 1.933 1.545.697.354 1.529.531 2.498.531.567 0 1.092-.089 1.577-.266.484-.177.915-.454 1.294-.833.377-.378.673-.862.886-1.453.213-.59.319-1.299.319-2.126v-16.195c0-.116.094-.211.211-.211h2.98c.116 0 .211.094.211.211v16.478c0 1.371-.201 2.533-.603 3.49-.402.957-.939 1.736-1.612 2.339-.674.602-1.459 1.04-2.356 1.311-.898.271-1.843.408-2.835.408-1.748 0-3.177-.307-4.288-.922-1.047-.579-1.926-1.305-2.637-2.179-.072-.088-.059-.219.026-.295l2.101-1.852zm17.255-.951c.086-.079.217-.073.295.014.295.327.621.659.977.995.413.39.88.739 1.4 1.046.519.307 1.098.555 1.736.744.638.189 1.334.283 2.091.283 1.559 0 2.775-.354 3.649-1.063.874-.709 1.311-1.665 1.311-2.87 0-1.299-.496-2.273-1.488-2.923-.992-.649-2.422-1.175-4.287-1.577-1.016-.213-1.937-.508-2.764-.886-.827-.378-1.541-.85-2.144-1.417-.602-.567-1.069-1.222-1.4-1.967-.331-.744-.496-1.588-.496-2.533 0-.874.165-1.701.496-2.48.331-.78.827-1.464 1.488-2.055.661-.59 1.488-1.063 2.48-1.417.992-.354 2.138-.532 3.437-.532 1.157 0 2.155.124 2.994.372.838.248 1.553.549 2.144.904.59.354 1.063.721 1.417 1.098.28.299.509.554.686.765.073.087.066.215-.018.292l-1.964 1.811c-.085.078-.216.076-.294-.009-.13-.14-.297-.308-.5-.502-.283-.271-.644-.537-1.081-.797-.437-.26-.945-.478-1.523-.656-.579-.177-1.247-.266-2.002-.266-.756 0-1.406.101-1.949.301-.544.201-.992.461-1.347.78-.354.319-.615.679-.779 1.081-.166.402-.248.803-.248 1.205 0 .591.124 1.093.372 1.506.248.414.608.78 1.081 1.098.473.319 1.057.591 1.754.815.697.225 1.494.443 2.392.656.874.213 1.73.49 2.569.833.838.343 1.588.803 2.25 1.382.661.579 1.187 1.288 1.577 2.126.39.839.585 1.86.585 3.065 0 1.016-.213 1.949-.638 2.8-.425.85-1.01 1.589-1.754 2.215-.744.626-1.624 1.111-2.64 1.453-1.016.342-2.115.514-3.295.514-1.111 0-2.121-.13-3.03-.39-.91-.26-1.736-.59-2.48-.992s-1.394-.844-1.949-1.329c-.495-.431-.91-.858-1.245-1.281-.069-.087-.055-.212.026-.286l2.108-1.926z" fill="#405261"/><linearGradient id="a" gradientUnits="userSpaceOnUse" x1="100" y1="132.347" x2="100" y2="16.32"><stop offset="0" stop-color="#FF616A"/><stop offset="1" stop-color="#FF7D95"/></linearGradient><path d="M148.899 22.624c-12.632-10.191-31.489-7.771-42.118 5.405-10.06 12.471-9.136 30.104 1.703 40.597-6.388 11.123-11.262 23.811-14.241 32.559-2.984-9.572-9.378-23.296-22.19-33.045l.01-.014c-3.106-2.382-10.483-6.403-13.829-7.622-1.556-.567-2.354-2.328-1.783-3.884.57-1.555 2.293-2.371 3.85-1.8 5.484 2.011 10.199 4.659 14.272 7.603.31-1.296.492-2.643.492-4.034 0-9.558-7.748-17.306-17.306-17.306s-17.306 7.748-17.306 17.306 7.748 17.306 17.306 17.306c3.8 0 7.309-1.23 10.163-3.306 9.479 7.078 15.136 16.772 18.459 24.915-9.377 2.373-16.145 9.111-16.145 17.062 0 9.931 10.552 17.982 23.568 17.982s23.568-8.051 23.568-17.982c0-7.748-6.426-14.346-15.431-16.874 1.31-3.554 2.844-7.458 4.579-11.445 2.214-5.089 4.467-9.649 6.74-13.693 12.482 7.76 29.411 4.799 39.267-7.419 10.628-13.177 9.004-32.12-3.628-42.311z" fill="url(#a)"/></g></svg>