<svg xmlns="http://www.w3.org/2000/svg" viewBox="0 0 120 120" enable-background="new 0 0 120 120"><style type="text/css">.st0{fill:url(#SVGID_1_);}</style><linearGradient id="SVGID_1_" gradientUnits="userSpaceOnUse" x1="60" y1="117.573" x2="60" y2="2.427"><stop offset="0" stop-color="#BFEE37"/><stop offset=".234" stop-color="#C1EF3B"/><stop offset=".477" stop-color="#C6F248"/><stop offset=".724" stop-color="#CFF75C"/><stop offset=".971" stop-color="#DCFE79"/><stop offset="1" stop-color="#DDFF7D"/></linearGradient><path class="st0" d="M105.7 81.1v33.5c0 1.7-1.3 3-3 3h-85.4c-1.7 0-3-1.3-3-3v-33.5h91.4zm-.2-47h-27.7v27h27.7v-27zm-31.7 0h-27.6v27h27.7v-27zm31.7-28.7c0-1.7-1.3-3-3-3h-24.7v27.7h27.7v-24.7zm-31.7-3h-27.6v27.7h27.7v-27.7zm-66.4 74.7h105.1c1.1 0 2-.9 2-2v-8c0-1.1-.9-2-2-2h-105.1c-1.1 0-2 .9-2 2v8c0 1.1.9 2 2 2zm34.8-71.8l-24.9 24.8h24.8v-24.8zm0 28.8h-27.7v27h27.7v-27z"/></svg>
